<?xml version="1.0" standalone="no"?>
<!DOCTYPE svg PUBLIC "-//W3C//DTD SVG 20010904//EN"
 "http://www.w3.org/TR/2001/REC-SVG-20010904/DTD/svg10.dtd">
<svg version="1.0" xmlns="http://www.w3.org/2000/svg"
 width="512.000000pt" height="512.000000pt" viewBox="0 0 512.000000 512.000000"
 preserveAspectRatio="xMidYMid meet">

<g transform="translate(0.000000,512.000000) scale(0.100000,-0.100000)"
fill="#000000" stroke="none">
<path d="M2611 5000 c-64 -15 -116 -69 -131 -136 -5 -21 -10 -157 -10 -301 l0
-262 -599 -3 c-573 -3 -600 -4 -620 -22 -27 -25 -29 -86 -3 -109 17 -16 101
-17 1006 -17 661 0 994 -3 1007 -10 19 -11 19 -43 19 -1935 0 -1892 0 -1924
-19 -1935 -27 -14 -2715 -14 -2742 0 -16 9 -19 22 -19 92 l0 81 194 196 c121
122 197 206 201 224 10 36 -1 75 -32 116 l-26 33 51 51 50 50 57 -37 c132 -88
266 -129 425 -129 219 0 402 80 551 241 112 121 182 272 196 419 l6 63 322 0
c199 0 334 4 352 10 28 10 53 45 53 74 0 7 -9 25 -21 40 l-20 26 -346 2 -345
3 -23 79 c-12 43 -39 109 -59 147 l-35 69 158 0 c174 0 193 6 207 62 5 22 0
33 -24 58 l-30 30 -221 0 -220 0 -78 53 c-237 162 -545 174 -799 32 -80 -45
-200 -156 -253 -236 -48 -71 -103 -201 -104 -245 -1 -46 27 -74 73 -74 46 0
62 17 89 100 59 182 229 337 424 387 81 20 215 20 296 -1 166 -43 317 -166
389 -317 51 -108 64 -163 63 -274 -1 -167 -57 -301 -176 -420 -122 -122 -259
-179 -430 -178 -159 0 -288 51 -406 160 -71 66 -126 147 -157 233 -29 81 -46
100 -89 100 -51 0 -77 -31 -70 -86 5 -50 62 -175 109 -240 l32 -45 -51 -51
-51 -51 -38 29 c-49 38 -115 40 -159 6 l-30 -24 -3 1499 c-2 1399 -1 1499 15
1511 12 9 78 12 243 12 207 0 228 2 243 18 24 27 22 85 -4 108 -20 18 -39 19
-268 19 -213 0 -250 -2 -277 -17 -43 -23 -81 -71 -94 -116 -6 -25 -10 -559
-10 -1611 l0 -1574 -158 -162 c-131 -133 -162 -170 -175 -210 -34 -99 -16
-176 58 -251 70 -70 151 -89 251 -59 18 6 23 1 33 -38 13 -52 49 -100 95 -125
29 -16 128 -17 1436 -17 l1405 0 43 25 c24 13 53 40 65 60 21 33 22 47 25 312
l3 277 334 3 c311 3 334 4 354 22 27 25 29 86 3 109 -17 15 -56 17 -355 17
l-337 0 0 145 0 144 605 3 604 3 22 22 c27 27 29 75 4 103 -18 20 -29 20 -627
20 l-608 0 0 129 0 130 324 3 c302 3 325 4 345 22 27 25 29 86 3 109 -17 15
-55 17 -345 17 l-327 0 0 200 0 200 269 0 c256 0 269 1 295 21 33 26 36 79 6
109 -19 19 -33 20 -295 20 l-275 0 0 200 0 200 278 0 c258 0 280 1 295 18 24
27 22 85 -4 108 -19 18 -42 19 -295 22 l-274 3 0 194 0 195 275 0 c262 0 276
1 295 20 30 30 27 83 -6 109 -26 20 -39 21 -295 21 l-269 0 0 195 0 195 269 0
c256 0 269 1 295 21 33 26 36 79 6 109 -19 19 -33 20 -294 20 l-274 0 -4 104
c-3 90 -7 108 -28 139 -14 20 -43 46 -65 59 -39 23 -46 23 -377 26 l-338 3 0
70 0 69 1175 0 1175 0 0 -1740 c0 -1709 0 -1739 -19 -1750 -12 -6 -124 -10
-294 -10 -253 0 -275 -1 -290 -18 -24 -27 -22 -85 4 -108 20 -18 40 -19 318
-19 336 0 349 3 399 78 l27 41 0 1986 0 1986 -27 41 c-14 22 -43 48 -65 59
-37 18 -79 19 -1208 21 -643 0 -1185 -2 -1204 -7z m2347 -152 c8 -8 12 -53 12
-135 l0 -123 -1172 2 -1173 3 -3 116 c-2 97 0 120 13 133 15 14 125 16 1164
16 879 0 1150 -3 1159 -12z m-4451 -4185 c-209 -209 -236 -233 -266 -233 -45
0 -91 46 -91 91 0 30 24 57 232 266 l232 233 63 -62 63 -63 -233 -232z"/>
<path d="M4539 4045 l-102 -135 -59 56 c-53 51 -62 56 -91 50 -18 -3 -40 -16
-49 -27 -35 -41 -24 -66 74 -166 93 -94 119 -110 158 -98 11 4 80 85 152 181
139 185 151 212 113 254 -12 13 -31 20 -56 20 -38 0 -41 -3 -140 -135z"/>
<path d="M1035 3875 c-96 -36 -175 -148 -175 -250 0 -206 210 -341 393 -251
99 48 151 132 151 241 0 112 -55 204 -150 250 -51 25 -165 30 -219 10z m173
-160 c61 -51 66 -129 12 -183 -99 -100 -265 26 -194 147 38 64 128 82 182 36z"/>
<path d="M2372 3674 c-30 -21 -31 -83 -1 -110 19 -17 41 -19 232 -22 229 -3
248 -1 277 28 26 26 25 60 -1 94 l-20 26 -233 0 c-193 0 -235 -3 -254 -16z"/>
<path d="M4639 3627 c-8 -7 -57 -67 -108 -135 l-93 -123 -53 50 c-63 59 -106
68 -143 28 -41 -44 -31 -70 71 -173 82 -83 96 -94 128 -94 26 0 42 7 61 28 45
49 238 311 248 338 24 62 -58 122 -111 81z"/>
<path d="M901 3124 c-29 -36 -26 -60 8 -95 l30 -29 566 2 567 3 19 24 c26 32
24 73 -4 99 l-23 22 -571 0 -572 0 -20 -26z"/>
<path d="M4643 3085 c-11 -8 -62 -71 -114 -139 l-93 -125 -57 54 c-65 62 -96
69 -134 30 -44 -43 -34 -68 63 -167 100 -103 113 -112 152 -103 22 5 56 43
161 183 146 194 155 216 105 259 -31 27 -53 29 -83 8z"/>
<path d="M909 2691 c-17 -13 -23 -29 -23 -56 0 -27 6 -43 23 -56 22 -18 60
-19 983 -19 l959 0 24 25 c32 31 32 69 0 100 l-24 25 -959 0 c-923 0 -961 -1
-983 -19z"/>
<path d="M4264 2482 c-39 -31 -44 -55 -44 -217 l0 -157 34 -34 34 -34 165 0
c187 0 207 7 227 78 15 56 13 276 -4 316 -26 61 -42 66 -226 66 -141 0 -168
-3 -186 -18z m276 -212 l0 -80 -85 0 -85 0 0 80 0 80 85 0 85 0 0 -80z"/>
<path d="M2574 2258 c-22 -10 -44 -47 -44 -72 0 -7 9 -25 21 -40 20 -26 21
-26 164 -26 143 0 144 0 164 26 34 43 26 86 -20 109 -33 18 -251 20 -285 3z"/>
<path d="M1354 2200 c-173 -24 -312 -126 -389 -284 -94 -193 -55 -418 99 -572
318 -318 857 -94 857 356 0 134 -40 240 -132 345 -96 110 -282 176 -435 155z
m121 -151 c246 -45 370 -301 253 -522 -84 -157 -282 -225 -450 -154 -143 62
-237 232 -210 379 29 156 143 273 289 298 27 4 51 8 54 9 3 0 32 -4 64 -10z"/>
<path d="M1215 1880 c-25 -28 -23 -76 4 -103 21 -21 30 -22 200 -22 162 0 181
2 200 19 27 25 29 86 3 109 -16 15 -45 17 -204 17 -173 0 -186 -1 -203 -20z"/>
<path d="M1215 1630 c-25 -28 -23 -76 4 -103 21 -21 30 -22 200 -22 162 0 181
2 200 19 27 25 29 86 3 109 -16 15 -45 17 -204 17 -173 0 -186 -1 -203 -20z"/>
<path d="M4240 1768 c-45 -48 -12 -112 64 -123 24 -4 109 -5 190 -3 134 3 147
5 167 25 27 27 29 75 4 103 -17 19 -30 20 -211 20 -186 0 -194 -1 -214 -22z"/>
<path d="M2343 1195 c-18 -8 -42 -29 -53 -47 -19 -31 -20 -46 -18 -265 l3
-233 33 -32 32 -33 233 -3 c256 -3 265 -1 304 57 22 33 23 42 23 250 0 326 5
321 -315 321 -158 -1 -218 -4 -242 -15z m407 -300 l0 -165 -165 0 -165 0 0
165 0 165 165 0 165 0 0 -165z"/>
<path d="M924 718 c-22 -10 -44 -47 -44 -74 0 -8 11 -26 25 -39 l24 -25 431 0
c417 0 431 1 450 20 30 30 27 83 -6 109 -26 21 -36 21 -443 20 -265 0 -424 -4
-437 -11z"/>
</g>
</svg>
