<?xml version="1.0" standalone="no"?>
<!DOCTYPE svg PUBLIC "-//W3C//DTD SVG 20010904//EN"
 "http://www.w3.org/TR/2001/REC-SVG-20010904/DTD/svg10.dtd">
<svg version="1.0" xmlns="http://www.w3.org/2000/svg"
 width="512.000000pt" height="512.000000pt" viewBox="0 0 512.000000 512.000000"
 preserveAspectRatio="xMidYMid meet">

<g transform="translate(0.000000,512.000000) scale(0.100000,-0.100000)"
fill="#000000" stroke="none">
<path d="M240 5027 c-49 -16 -133 -102 -148 -153 -17 -60 -17 -3128 0 -3188
16 -55 99 -138 154 -154 31 -9 238 -12 823 -12 735 0 782 -1 788 -18 102 -292
380 -589 684 -731 338 -159 733 -172 1073 -36 l68 27 116 -115 c130 -127 167
-148 239 -128 l37 11 196 -194 c236 -233 263 -250 405 -251 82 0 96 3 156 32
79 39 140 102 177 181 23 49 27 70 27 147 -1 142 -18 169 -251 405 l-194 196
11 37 c20 72 -1 109 -128 239 l-115 116 25 64 c154 384 119 831 -93 1187 l-50
84 0 1030 c0 767 -3 1040 -12 1069 -6 22 -31 62 -55 88 -78 87 106 80 -2017
79 -1341 -1 -1891 -4 -1916 -12z m3815 -172 c24 -23 25 -29 25 -160 l0 -135
-1920 0 -1920 0 0 135 c0 131 1 137 25 160 l24 25 1871 0 1871 0 24 -25z m25
-1171 l0 -716 -37 32 c-92 77 -201 153 -279 196 l-84 46 0 474 0 475 -25 24
c-24 25 -26 25 -215 25 -189 0 -191 0 -215 -25 l-25 -24 0 -416 0 -415 -80 0
-80 0 0 175 c0 239 15 225 -240 225 -189 0 -191 0 -215 -25 l-25 -24 0 -235 0
-236 -58 -29 c-175 -88 -362 -248 -482 -411 -75 -103 -171 -294 -204 -412 -33
-114 -56 -274 -56 -384 0 -80 21 -261 36 -306 5 -17 -35 -18 -751 -18 l-756 0
-24 25 -25 24 0 1336 0 1335 1920 0 1920 0 0 -716z m-560 6 c0 -214 -1 -390
-2 -390 -2 1 -37 9 -78 19 l-75 18 -3 371 -2 372 80 0 80 0 0 -390z m-642
-222 l-3 -131 -75 -18 c-41 -10 -76 -18 -77 -19 -2 0 -3 68 -3 150 l0 150 80
0 81 0 -3 -132z m502 -297 c414 -94 750 -399 879 -798 44 -138 56 -215 56
-373 0 -83 -6 -175 -14 -215 -97 -488 -450 -848 -943 -962 -101 -23 -373 -23
-476 0 -241 55 -442 164 -608 331 -174 175 -287 386 -335 631 -21 103 -18 349
5 455 76 352 299 650 610 816 135 71 261 112 431 138 68 10 312 -4 395 -23z
m843 -2273 l-223 -223 -84 85 -85 84 67 44 c85 57 285 258 337 339 l40 63 85
-85 85 -85 -222 -222z m444 -160 c115 -116 188 -197 198 -220 23 -56 19 -108
-13 -169 -49 -94 -163 -134 -257 -90 -24 12 -110 89 -220 200 l-180 181 140
140 c77 77 142 140 145 140 3 0 87 -82 187 -182z"/>
<path d="M1386 4217 l-26 -26 0 -351 0 -351 25 -24 24 -25 351 0 351 0 26 26
c25 25 26 29 19 110 -13 174 -81 319 -211 449 -130 130 -275 198 -449 211 -81
7 -85 6 -110 -19z m237 -170 c92 -33 150 -70 213 -134 64 -65 98 -120 131
-210 40 -112 58 -103 -212 -103 l-235 0 0 235 c0 270 -9 252 103 212z"/>
<path d="M979 3905 c-210 -42 -403 -188 -497 -377 -62 -123 -77 -190 -76 -338
1 -107 5 -137 27 -205 38 -115 90 -199 182 -290 93 -93 160 -135 282 -178 80
-28 100 -31 213 -31 148 -1 216 14 338 76 192 96 336 289 378 506 21 112 19
158 -11 187 l-24 25 -296 0 -295 0 0 295 0 296 -25 24 c-28 29 -86 32 -196 10z
m61 -413 l0 -257 -183 -183 c-203 -202 -190 -196 -232 -113 -112 222 -72 486
101 656 81 80 217 152 292 154 l22 1 0 -258z m630 -392 c0 -28 -42 -140 -73
-193 -39 -66 -136 -158 -203 -194 -104 -54 -159 -68 -274 -68 -108 0 -165 13
-255 58 -90 44 -97 30 107 234 l183 183 257 0 c249 0 258 -1 258 -20z"/>
<path d="M425 2295 c-25 -24 -25 -26 -25 -215 0 -189 0 -191 25 -215 l24 -25
511 0 511 0 24 25 c25 24 25 26 25 215 0 189 0 191 -25 215 l-24 25 -511 0
-511 0 -24 -25z m935 -215 l0 -80 -400 0 -400 0 0 80 0 80 400 0 400 0 0 -80z"/>
<path d="M2948 3025 c-370 -62 -688 -330 -809 -683 -75 -216 -76 -460 -4 -671
118 -347 414 -611 770 -687 280 -60 586 4 820 171 71 50 191 171 240 239 88
124 161 308 184 463 38 257 -36 551 -192 759 -54 71 -183 196 -249 242 -214
147 -502 210 -760 167z m252 -425 l0 -280 -80 0 -80 0 0 280 0 280 80 0 80 0
0 -280z m-320 -20 l0 -260 -80 0 -80 0 0 233 0 232 63 27 c106 45 97 66 97
-232z m572 233 l68 -26 0 -234 0 -233 -80 0 -80 0 0 260 c0 199 3 260 12 260
7 0 43 -12 80 -27z m-892 -318 l0 -175 -55 0 c-46 0 -60 -4 -80 -25 -25 -24
-25 -26 -25 -215 0 -189 0 -191 25 -215 l24 -25 671 0 671 0 24 25 c25 24 25
26 25 215 0 189 0 191 -25 215 -20 21 -34 25 -80 25 l-55 0 0 175 c0 204 -3
201 93 94 207 -233 277 -549 186 -843 l-20 -66 -819 0 -819 0 -20 66 c-93 301
-17 626 199 855 36 38 68 69 73 69 4 0 7 -79 7 -175z m1120 -415 l0 -80 -560
0 -560 0 0 80 0 80 560 0 560 0 0 -80z m170 -568 c0 -14 -107 -137 -156 -178
-323 -272 -770 -285 -1105 -32 -71 53 -199 188 -199 210 0 4 329 8 730 8 402
0 730 -4 730 -8z"/>
</g>
</svg>
